<?xml version="1.0" encoding="UTF-8" standalone="no"?>
<!-- Created with Inkscape (http://www.inkscape.org/) -->

<svg
   xmlns:dc="http://purl.org/dc/elements/1.1/"
   xmlns:cc="http://creativecommons.org/ns#"
   xmlns:rdf="http://www.w3.org/1999/02/22-rdf-syntax-ns#"
   xmlns:svg="http://www.w3.org/2000/svg"
   xmlns="http://www.w3.org/2000/svg"
   xmlns:sodipodi="http://sodipodi.sourceforge.net/DTD/sodipodi-0.dtd"
   xmlns:inkscape="http://www.inkscape.org/namespaces/inkscape"
   width="128"
   height="128"
   viewBox="0 0 33.866666 33.866668"
   version="1.1"
   id="svg2426"
   inkscape:version="0.92.4 (5da689c313, 2019-01-14)"
   sodipodi:docname="railway-enabled.svg">
  <defs
     id="defs2420" />
  <sodipodi:namedview
     id="base"
     pagecolor="#ffffff"
     bordercolor="#666666"
     borderopacity="1.0"
     inkscape:pageopacity="0.0"
     inkscape:pageshadow="2"
     inkscape:zoom="2.53"
     inkscape:cx="-73.892546"
     inkscape:cy="53.69259"
     inkscape:document-units="mm"
     inkscape:current-layer="layer1"
     showgrid="false"
     inkscape:pagecheckerboard="true"
     units="px"
     inkscape:window-width="1920"
     inkscape:window-height="1017"
     inkscape:window-x="-8"
     inkscape:window-y="-8"
     inkscape:window-maximized="1" />
  <metadata
     id="metadata2423">
    <rdf:RDF>
      <cc:Work
         rdf:about="">
        <dc:format>image/svg+xml</dc:format>
        <dc:type
           rdf:resource="http://purl.org/dc/dcmitype/StillImage" />
        <dc:title />
      </cc:Work>
    </rdf:RDF>
  </metadata>
  <g
     inkscape:label="Calque 1"
     inkscape:groupmode="layer"
     id="layer1"
     transform="translate(0,-263.13332)">
    <path
       inkscape:connector-curvature="0"
       style="fill:#737370;stroke-width:0.26458341"
       d="m 4.78685,264.72082 h 24.29172 c 1.75926,0 3.2006,1.4396 3.2006,3.20041 v 24.29032 c 0,1.76135 -1.44134,3.20094 -3.2006,3.20094 H 4.78685 c -1.76107,0 -3.19935,-1.43959 -3.19935,-3.20094 v -24.29032 c 0,-1.76081 1.43828,-3.20041 3.19935,-3.20041"
       id="path3836"
       inkscape:label="back" />
    <path
       d="m 15.872773,293.70592 c 0.738996,-10.26181 6.473311,-19.06126 14.813362,-23.34723 0.382905,-0.19912 0.635366,-0.44186 0.555797,-0.55576 -0.757698,-1.07624 -1.515467,-2.15243 -2.273246,-3.22874 -0.07951,-0.11347 -0.580402,-0.1566 -1.112808,-0.079 -11.511957,1.70533 -20.9785937,8.9805 -25.1133116,18.8742 -0.1926421,0.45604 0.00906,1.04636 0.4340267,1.31046 3.9597882,2.46939 7.9194909,4.9387 11.8792039,7.40816 0.425449,0.26439 0.784444,0.0913 0.816981,-0.38209 z m 9.285175,-20.62585 c -1.267739,-1.38105 -2.535552,-2.7622 -3.803287,-4.14326 0.743507,-0.30859 1.502109,-0.59115 2.274586,-0.84637 1.078094,1.25596 2.156183,2.51191 3.234277,3.76787 -0.584517,0.38487 -1.15332,0.79252 -1.705576,1.22176 z m -1.224169,1.01056 c -0.5264,0.46118 -1.035429,0.94293 -1.526006,1.44426 -1.60804,-1.57896 -3.216143,-3.15804 -4.824175,-4.73702 0.686491,-0.39658 1.390285,-0.76914 2.1101,-1.11648 1.41341,1.46981 2.826751,2.93952 4.240081,4.40924 z m -2.607769,2.61454 c -0.462225,0.52997 -0.905321,1.0785 -1.328227,1.64443 -1.954929,-1.74876 -3.909767,-3.49761 -5.864685,-5.24638 0.621659,-0.47727 1.262851,-0.93258 1.922429,-1.36483 1.756771,1.6556 3.513622,3.31127 5.270509,4.96674 z m -2.253127,2.95799 c -0.391888,0.59145 -0.762905,1.19928 -1.111986,1.82236 -2.305254,-1.8902 -4.610508,-3.78023 -6.915768,-5.67042 0.549028,-0.5507 1.119807,-1.08159 1.711189,-1.59148 2.105416,1.81319 4.210988,3.62638 6.316565,5.43954 z m -1.866135,3.2621 c -0.315403,0.64529 -0.608273,1.30487 -0.877458,1.97753 -2.656117,-2.00263 -5.312243,-4.00542 -7.9683588,-6.00806 0.468584,-0.61682 0.9609917,-1.21588 1.4763015,-1.79585 2.4565853,1.94209 4.9130923,3.88427 7.3695153,5.82638 z m -1.447281,3.5262 c -0.232854,0.69174 -0.44134,1.39568 -0.62447,2.1106 -3.004531,-2.08617 -6.0092116,-4.17233 -9.0137375,-6.2585 0.380192,-0.67568 0.7866559,-1.33568 1.2181572,-1.97872 2.8067133,2.04222 5.6133403,4.08438 8.4200503,6.12662 z m 13.882344,-16.19055 c -0.483752,0.24002 -0.958838,0.49494 -1.425541,0.76345 -0.937026,-1.1554 -1.873893,-2.31081 -2.810919,-3.46621 0.608743,-0.16382 1.224774,-0.31144 1.848122,-0.44159 0.796082,1.04809 1.59217,2.09634 2.388338,3.14435 z M 4.5691854,285.49879 c 0.22823,-0.5536 0.4736553,-1.09871 0.7345541,-1.63532 3.1531045,2.11304 6.3062975,4.22613 9.4594075,6.33916 -0.110722,0.56115 -0.20645,1.12807 -0.28593,1.70043 -3.302655,-2.13483 -6.6053841,-4.26959 -9.9080316,-6.40427 z"
       id="path2-8"
       inkscape:connector-curvature="0"
       style="fill:#82d1f5;fill-opacity:1;stroke-width:0.1109868" />
  </g>
</svg>
